# xmcd
#
# Track frame offsets: 
#        150
#        21592
#        47662
#
# Disc length: 889 seconds
#
# Revision: 4
# Processed by: cddbd v1.5.2PL0 Copyright (c) Steve Scherf et al.
# Submitted via: ExactAudioCopy v0.95b2
#
DISCID=21037703
DTITLE=Black Sabbath - Feels Good To Me
DYEAR=1990
DGENRE=Heavy Metal
TTITLE0=Feels Good To Me (edit)
TTITLE1=Feels Good To Me
TTITLE2=Paranoid (live)
EXTD=Recorded live in Germany on the Hell On Stage World Tour YEAR: 19
EXTD=99
EXTT0=
EXTT1=
EXTT2=
PLAYORDER=
